<svg xmlns="http://www.w3.org/2000/svg" viewBox="0 0 64 64" fill="none">
  <circle cx="32" cy="32" r="30" fill="#f0fdf4" stroke="#4ade80" stroke-width="2"/>
  <path d="M46 26C46 26 50 27 52 29C50 31 46 32 46 32" fill="#fbbf24" stroke="#fbbf24" stroke-width="2" stroke-linejoin="round"/>
  <path d="M18 36C18 36 16 26 24 20C32 14 42 16 46 22C50 28 46 36 46 36C46 36 48 44 40 48C32 52 22 48 18 44C16 42 18 36 18 36Z" fill="#4ade80"/>
  <path d="M26 32C26 32 30 30 36 34" stroke="#166534" stroke-width="2" stroke-linecap="round"/>
  <circle cx="38" cy="24" r="2.5" fill="#166534"/>
</svg>